<?xml version="1.0" encoding="UTF-8"?>
<svg xmlns="http://www.w3.org/2000/svg" version="1.1" viewBox="0 0 288 288">
  <!-- Generator: Adobe Illustrator 29.7.1, SVG Export Plug-In . SVG Version: 2.1.1 Build 8)  -->
  <defs>
    <style>
      .st0 {
        fill: #fff;
      }

      .st1 {
        fill: #0d4f55;
      }

      .st2 {
        fill: #0e4f55;
      }

      .st3 {
        fill: #e4893c;
      }

      .st4 {
        fill: #e5893c;
      }
    </style>
  </defs>
  <g id="Layer_2">
    <path class="st1" d="M189.72,54.31c-.67.9-1.83,3.76-1.88,4.84-.18,3.95,10.18,17.6,13.1,21.27,7.12,8.97,24.39,29.33,37.28,23.66,3.42,6.47,1.25,10.63,9.54,12.48,7.74,1.72,13.66,1.21,14.7,11.46.87,8.63,1.62,26.85-.13,34.95-2.05,9.47-13.94,5.96-19.35,11.28-3.66,3.6-5.23,9.18-7.23,13.82-2.87,6.67.11,8.23,1.52,14.27s1.33,9.2-2.35,14.25-17.88,19.11-22.86,23.09c-4.58,3.67-8.97,5.35-14.83,3.33-3.26-1.12-8.79-6.71-11.66-6.59-.61.03-10.4,4.55-11.14,5.18-2.26,1.9-1.51,6.1-2.09,8.75-1.69,7.71-5.2,12.55-13.53,13.27-7.85.68-22.85.7-30.68,0-5.61-.5-9.13-3.51-11.16-8.62-1.39-3.5-1.48-9.15-2.9-11.78-.92-1.7-10.91-7.61-12.67-7.06-12.99,4.04-15.61,12.53-27.81,2.24-5.48-4.63-22.48-20.75-24.2-26.85-2.49-8.82,2.42-10.71,3.65-17.35,1.04-5.59-4.07-15.13-7.58-19.56-5.88-7.43-19.24-1.28-20.39-14.07-.56-6.23-.82-30.03.63-35.15,3.09-10.9,15.24-5.47,19.8-10.2,1.86-1.93,2.37-9.15,3.84-11.79,14.63,6.92,31.4-14.73,39.19-24.94,2.85-3.74,8.36-14.33,8.48-18.51.03-1-4.53-.26-5-1,0,0,19.2-9.11,22.07-12.38,3.97-4.54.38-11.68,4.18-16.87,2.55-3.48,6.28-5.09,10.5-5.45,7.77-.67,20.91-.54,28.77,0,6.26.43,11.36,2.5,13.39,8.94,1.1,3.49.67,11.29,2.47,13.48s13.23,5.65,16.33,7.6Z"/>
    <ellipse class="st0" cx="144" cy="144" rx="72" ry="66.5"/>
  </g>
  <g id="Layer_4">
    <g id="Layer_3">
      <path class="st2" d="M159.6,126.55h16.43c1.49,1.23,1.58,2.64,1.74,4.42.37,4.06.74,11.59-1.74,14.75h-16.43c-1.49-1.23-1.58-2.64-1.74-4.42-.19-2.11-.5-14.75,1.74-14.75Z"/>
      <path class="st2" d="M111.84,126.55h16.43c2.81,4.48,2.6,14.44,0,19.17h-16.43c-1.49-1.23-1.58-2.64-1.74-4.42-.19-2.11-.5-14.75,1.74-14.75Z"/>
    </g>
    <g>
      <path class="st3" d="M98.23,54.9c.47.74,1.34,4.4,1.31,5.4-.12,4.18-8.4,15.05-11.25,18.79-7.79,10.21-24.56,31.86-39.19,24.94-2.75-1.3-12.01-10.49-13.93-13.19-8.15-11.51,4.1-23.49,11.69-31.48,9.62-10.14,24.25-24.74,38.95-15.32,1.98,1.27,11.44,9.29,12.43,10.86Z"/>
      <path class="st4" d="M237.98,104.67c-12.89,5.67-30.16-14.69-37.28-23.66-2.92-3.67-13.27-17.32-13.1-21.27.05-1.08,1.21-3.94,1.88-4.84,2.85-3.87,12.94-12.1,17.59-13.36,13.39-3.63,29.03,12.85,37.31,21.96,5.95,6.54,14.44,15,9.81,24.52-1.66,3.42-12.87,15.19-16.21,16.65Z"/>
    </g>
  </g>
  <g id="Layer_7">
    <path class="st1" d="M154.51,152.09c1.9,4.58-5.55,10.51-10.51,10.51s-12.4-5.93-10.51-10.51c2.68-6.47,18.34-6.47,21.02,0Z"/>
  </g>
</svg>